<svg width="384" height="284" viewBox="0 0 384 284" fill="none" xmlns="http://www.w3.org/2000/svg">
<rect x="0" y="0" width="384" height="284" fill="white" />
<g style="mix-blend-mode:multiply">
<g clip-path="url(#clip0_11709_118294)">
<path d="M-83.9996 49.0002C38.9069 78.2885 68.0002 -13.5886 256 22.0001C444 57.5888 378.001 84.0009 452.001 55.0005C526 26.0001 419.001 -35.9995 419.001 -35.9995L-209.447 4.12603L-203.251 93.2335C-171.55 80.9921 -206.906 19.7118 -83.9996 49.0002Z" fill="url(#paint0_linear_11709_118294)"/>
<path d="M459 62.001C333.612 90.8427 253 -14.9996 118 10.0003C-16.9993 35.0001 -7.19832 3.54926 -7.19832 3.54926L-8.45 -53.4956L536.863 -53.8461L538.822 35.4552C538.822 35.4552 584.388 33.1593 459 62.001Z" fill="url(#paint1_linear_11709_118294)"/>
</g>
</g>
<defs>
<linearGradient id="paint0_linear_11709_118294" x1="-28" y1="62.0001" x2="297.708" y2="-163.515" gradientUnits="userSpaceOnUse">
<stop stop-color="#7F43C9"/>
<stop offset="0.818978" stop-color="#F5F0FB" stop-opacity="0"/>
</linearGradient>
<linearGradient id="paint1_linear_11709_118294" x1="-18.0001" y1="-17" x2="309.206" y2="186.136" gradientUnits="userSpaceOnUse">
<stop stop-color="#252E8F"/>
<stop offset="1" stop-color="#3A46CC" stop-opacity="0"/>
</linearGradient>
<clipPath id="clip0_11709_118294">
<rect width="384" height="284" rx="4" fill="white"/>
</clipPath>
</defs>
</svg>
