<svg width="16" height="16" viewBox="0 0 16 16" fill="none" class="icon-light-jade-200 text-teal-500 transition transition-all sm:hidden group-hover:text-[#7289da]"><path d="M13.545 3.069a13.513 13.513 0 0 0-3.257-.978.05.05 0 0 0-.052.024c-.141.242-.297.558-.406.806a12.576 12.576 0 0 0-3.658 0 8.054 8.054 0 0 0-.412-.806.052.052 0 0 0-.052-.024c-1.143.19-2.236.524-3.257.978a.046.046 0 0 0-.021.017c-2.074 3-2.643 5.927-2.364 8.818.001.014.01.027.02.036a13.443 13.443 0 0 0 3.996 1.955.053.053 0 0 0 .056-.018c.308-.407.582-.836.818-1.287a.048.048 0 0 0-.028-.068 8.874 8.874 0 0 1-1.248-.576.049.049 0 0 1-.005-.082 6.78 6.78 0 0 0 .248-.189.05.05 0 0 1 .051-.006c2.619 1.157 5.454 1.157 8.041 0a.05.05 0 0 1 .053.006c.08.064.164.128.248.189a.049.049 0 0 1-.004.082 8.318 8.318 0 0 1-1.249.575.049.049 0 0 0-.027.07c.24.45.514.879.817 1.286a.052.052 0 0 0 .056.018 13.399 13.399 0 0 0 4.001-1.955.05.05 0 0 0 .021-.036c.334-3.341-.559-6.244-2.365-8.817a.04.04 0 0 0-.021-.018Zm-8.198 7.075c-.789 0-1.438-.701-1.438-1.562 0-.86.637-1.56 1.438-1.56.807 0 1.45.706 1.438 1.56 0 .861-.637 1.562-1.438 1.562Zm5.316 0c-.788 0-1.438-.701-1.438-1.562 0-.86.637-1.56 1.438-1.56.807 0 1.45.706 1.438 1.56 0 .861-.63 1.562-1.438 1.562Z" fill="currentColor" class="icon-dark"></path></svg>