<svg width="16" height="16" viewBox="0 0 16 16" fill="none" class="icon-container__svg-part text-teal-500 transition transition-all sm:hidden group-hover:text-[#0077b5]"><path d="M16 1.176v13.647A1.176 1.176 0 0 1 14.823 16H1.176A1.176 1.176 0 0 1 0 14.823V1.176A1.176 1.176 0 0 1 1.176 0h13.647A1.176 1.176 0 0 1 16 1.176ZM4.706 6.118H2.353v7.53h2.353v-7.53Zm.212-2.589a1.355 1.355 0 0 0-1.346-1.364h-.043a1.365 1.365 0 1 0 0 2.73 1.355 1.355 0 0 0 1.389-1.323v-.043Zm8.73 5.544c0-2.264-1.44-3.144-2.871-3.144a2.682 2.682 0 0 0-2.382 1.215H8.33V6.118H6.118v7.53H8.47V9.641a1.562 1.562 0 0 1 1.411-1.684h.09c.748 0 1.303.47 1.303 1.656v4.033h2.353l.02-4.574Z" fill="currentColor" class="icon-dark"></path></svg>