<svg width="16" height="16" viewBox="0 0 16 16" fill="none" class="icon-container__svg-part text-teal-500 transition transition-all sm:hidden group-hover:text-[#ff0000]"><path fill-rule="evenodd" clip-rule="evenodd" d="M14.25 2.575c.69.184 1.231.725 1.415 1.414C16 5.237 16 7.84 16 7.84s0 2.604-.335 3.852a2.004 2.004 0 0 1-1.414 1.414c-1.247.335-6.251.335-6.251.335s-5.004 0-6.25-.335a2.004 2.004 0 0 1-1.415-1.414C0 10.444 0 7.84 0 7.84s0-2.603.335-3.85a2.004 2.004 0 0 1 1.414-1.415C2.996 2.24 8 2.24 8 2.24s5.004 0 6.25.335ZM10.556 7.84l-4.157 2.4v-4.8l4.157 2.4Z" fill="currentColor" class="icon-dark"></path></svg>