<svg width="24" height="24" viewBox="0 0 24 24" fill="none" class="icon-dark-indigo-500 icon-light-indigo-200 mx-auto mb-[8px] hidden md:block"><path fill="#D0D2E0" fill-rule="evenodd" d="M2 13C2 7.477 6.477 3 12 3s10 4.477 10 10a9.985 9.985 0 0 1-4 8H6a9.985 9.985 0 0 1-4-8Zm10 1a1 1 0 1 0 0-2 1 1 0 0 0 0 2Z" class="icon-light" clip-rule="evenodd"></path><path fill="currentColor" d="m6 21-.6.8a1 1 0 0 0 .6.2v-1Zm12 0v1a1 1 0 0 0 .6-.2L18 21Zm-6.707-8.707a1 1 0 0 0 1.414 1.414l-1.414-1.415Zm6.414-3.586a1 1 0 0 0-1.414-1.414l1.414 1.414ZM3 13a9 9 0 0 1 9-9V2C5.925 2 1 6.925 1 13h2Zm9-9a9 9 0 0 1 9 9h2c0-6.075-4.925-11-11-11v2ZM6.6 20.2A8.985 8.985 0 0 1 3 13H1c0 3.6 1.73 6.795 4.4 8.8l1.2-1.6ZM21 13a8.985 8.985 0 0 1-3.6 7.2l1.2 1.6c2.67-2.005 4.4-5.2 4.4-8.8h-2Zm-9 0v2a2 2 0 0 0 2-2h-2Zm0 0h-2a2 2 0 0 0 2 2v-2Zm0 0v-2a2 2 0 0 0-2 2h2Zm-6 9h12v-2H6v2Zm8-9c0-.552-.225-1.054-.586-1.415L12 13h2Zm-.586-1.415A1.997 1.997 0 0 0 12 11v2l1.414-1.415Zm-.707 2.122.707-.707L12 11.585l-.707.707 1.414 1.415Zm.707-.707 4.293-4.293-1.414-1.414L12 11.585 13.414 13Z" class="icon-dark"></path><path fill="currentColor" fill-rule="evenodd" d="M5.68 8.094A8.048 8.048 0 0 1 7.094 6.68l.663.663a1 1 0 0 1-1.414 1.414l-.663-.663ZM4.062 14a8.079 8.079 0 0 1 0-2H5a1 1 0 1 1 0 2h-.938Zm15.876-2a8.07 8.07 0 0 1 0 2H19a1 1 0 1 1 0-2h.938ZM13 5.062V6a1 1 0 1 1-2 0v-.938a8.079 8.079 0 0 1 2 0Z" class="icon-dark" clip-rule="evenodd"></path></svg>