<svg width="24" height="24" viewBox="0 0 24 24" fill="none" class="icon-dark-indigo-500 icon-light-indigo-200 mx-auto mb-[8px] hidden md:block"><path fill="#D0D2E0" fill-rule="evenodd" d="M3 17H2v.1A2.9 2.9 0 0 0 4.9 20h14.2a2.9 2.9 0 0 0 2.9-2.9V17H3Z" class="icon-light" clip-rule="evenodd"></path><path stroke="currentColor" stroke-linecap="round" stroke-linejoin="round" stroke-width="2" d="M21 17H3m18 0h1v.1m-1-.1V6M3 17H2v.1m1-.1V6m2-2h14M5 4a2 2 0 0 0-2 2m2-2v0a2 2 0 0 0-2 2v0m16-2a2 2 0 0 1 2 2m-2-2v0a2 2 0 0 1 2 2v0m1 11.1a2.9 2.9 0 0 1-2.9 2.9m2.9-2.9v0a2.9 2.9 0 0 1-2.9 2.9v0m0 0H4.9m0 0A2.9 2.9 0 0 1 2 17.1M4.9 20v0A2.9 2.9 0 0 1 2 17.1v0" class="icon-dark"></path><circle cx="12" cy="7" r="1" fill="currentColor" class="icon-dark"></circle></svg>