<svg fill="none" viewBox="0 0 111 24" class="swiper-slide max-h-[32px]" astro-icon="companies/Mercari_gray">
        <path fill="#AFB3C7"
          d="M31.982 9.15H21.155v14.62h10.827v-2.99h-7.587v-2.778h7.237v-2.95h-7.238V12.14h7.588V9.15Zm17.235 2.268c0-1.49-.536-2.677-1.597-3.53-1.033-.846-2.383-1.275-4.012-1.275H37.55v14.62h3.239v-4.639h2.325l2.845 4.639h3.68l-3.227-5.26a4.973 4.973 0 0 0 2.805-4.555Zm-8.428-1.816h2.288c1.998 0 2.928.63 2.928 1.98 0 1.351-.954 2.042-2.928 2.042h-2.288V9.602Zm24.241 9.376c-.974 1.317-2.27 1.987-3.853 1.987a4.28 4.28 0 0 1-3.096-1.215c-.832-.81-1.254-1.928-1.254-3.322 0-1.394.422-2.469 1.254-3.26a4.088 4.088 0 0 1 2.931-1.215 4.513 4.513 0 0 1 3.77 1.923l.056.082 2.184-2.228-.047-.057c-1.473-1.826-3.43-2.753-5.817-2.753-2.178 0-4.015.694-5.46 2.083-1.447 1.389-2.192 3.218-2.192 5.49 0 2.242.738 4.073 2.193 5.445C57.154 23.309 59.042 24 61.254 24c2.448 0 4.447-.925 5.942-2.752l.045-.057-2.16-2.29-.052.077ZM78.942 6.613H75.9L70.222 21.12l-.043.113h3.353l1.042-2.62h5.657l1.065 2.62h3.352L78.954 6.665l-.012-.052Zm.24 9.112h-3.52l1.759-4.632 1.76 4.632Zm21.358-1.771c0-1.489-.539-2.676-1.598-3.529-1.058-.852-2.383-1.276-4.011-1.276h-6.064v14.622h3.24v-4.64h2.324l2.845 4.64h3.68l-3.227-5.267a4.973 4.973 0 0 0 2.811-4.55Zm-8.434-1.814h2.288c1.998 0 2.927.629 2.927 1.98 0 1.35-.956 2.04-2.927 2.04h-2.288v-4.02Zm16.912-4.26H105.8v13.353h3.218V7.88ZM106.973 0l-1.489 3.526 3.527 1.489 1.488-3.527L106.973 0ZM7.97 14.527l4.142-7.914h3.298v14.62h-3.255v-8.348h-.038L8.98 18.528H6.874l-3.138-5.635h-.04v8.333H.437V6.613h3.299l4.166 7.914h.068Z">
        </path>
      </svg>