<svg fill="none" viewBox="0 0 112 28" class="swiper-slide max-h-[32px]" astro-icon="companies/Trulia_gray">
        <g clip-path="url(#astroicon:companies/Trulia_graya)">
          <path fill="#AFB3C7" fill-rule="evenodd"
            d="M82.062.048a4.05 4.05 0 0 0-.914.296c-.476.245-1.166 1.022-1.397 1.573-.392.934-.095 2.447.635 3.24.155.168.572.442.926.608 1.552.73 3.283.127 4.084-1.422.33-.64.354-1.888.047-2.533C84.84.547 83.402-.203 82.063.048Zm-20.13 3.969v2.567h3.478V22.5h-3.476v5.263h12.104V22.5H70.69V1.45h-8.756v2.567Zm-58.33.962v3.145H.125v5.134h3.477v2.407c0 5.145.626 7.11 3.012 9.47 1.296 1.282 2.462 1.98 4.199 2.517.799.247 1.254.3 2.64.301.92.001 1.775-.04 1.899-.09.203-.083.225-.333.225-2.614v-2.522l-.354.081c-.96.22-1.809.227-2.607.023-1.543-.394-2.549-1.209-3.258-2.638l-.413-.83-.04-3.053-.04-3.052h6.712V8.124H8.88V1.835H3.6v3.144Zm94.836 3.135c-3.09.78-5.52 3.13-6.647 6.428-.365 1.07-.423 1.428-.473 2.912-.085 2.562.383 4.352 1.652 6.325 1.152 1.79 3.024 3.247 4.953 3.854 1.122.354 2.945.471 4.133.267 1.049-.18 2.5-.843 3.288-1.5l.562-.469.038.916.038.916h5.268V8.124h-5.279V9.92l-.592-.45c-.954-.726-1.601-1.055-2.625-1.337-1.215-.334-3.035-.341-4.316-.018Zm-67.667.01c-1.418.242-3.137 1.232-4.003 2.306-.226.28-.453.485-.504.454-.05-.031-.309-.665-.575-1.408l-.483-1.352h-5.122v5.134h2.446v14.505h5.134l.04-5.552.041-5.551.401-.834c.51-1.06 1.18-1.728 2.239-2.229.728-.345 1.008-.402 2.157-.446l1.32-.05V7.996l-1.256.015c-.69.008-1.516.06-1.835.114Zm7.375 5.68c.064 6.496.103 6.807 1.09 8.824.518 1.057.77 1.392 1.893 2.51 1.082 1.078 1.476 1.378 2.39 1.822 1.436.696 2.35.93 3.992 1.018 4.863.263 9.063-2.963 10.057-7.724.213-1.024.24-1.781.242-6.643l.002-5.487H52.68l-.041 5.68-.042 5.68-.36.77c-1.922 4.1-7.88 3.443-8.718-.962-.073-.383-.129-2.959-.129-5.923V8.124h-5.3l.056 5.68Zm38.595-3.113v2.567h3.476v14.505h8.628V22.5h-3.477V8.123h-8.627v2.567Zm25.826 2.376c1.439.438 2.758 1.783 3.211 3.275.329 1.083.231 2.785-.216 3.742-.628 1.343-1.745 2.297-3.188 2.723-.922.272-1.614.26-2.594-.043-2.587-.803-4.03-3.34-3.451-6.066.258-1.213 1.01-2.3 2.112-3.057 1.045-.716 2.839-.966 4.126-.574Z"
            clip-rule="evenodd"></path>
        </g>
        <defs>
          <clipPath id="astroicon:companies/Trulia_graya">
            <path fill="#fff" d="M0 0h111.125v28H0z" transform="translate(.125)"></path>
          </clipPath>
        </defs>
      </svg>