<svg fill="none" viewBox="0 0 201 16" class="swiper-slide max-h-[32px]" astro-icon="companies/WarbyParker_gray">
        <g clip-path="url(#astroicon:companies/WarbyParker_graya)">
          <path fill="#AFB3C7"
            d="M194.193 7.81h-3.725V2.458h3.855c1.798.048 3.108 1.087 3.114 2.787-.02 1.497-.99 2.524-3.244 2.567Zm6.066 6.123c-1.118-1.494-2.789-3.706-3.518-4.674 1.64-.704 2.782-2.116 2.782-4.053-.005-2.492-2.054-4.683-5.156-4.683h-5.431l-.039-.01c-.205 0-.585.38-.585.662-.007.238-.007 12.914 0 13.205.004.102-.016.212.111.413.164.222.406.234.513.234h.905c.05 0 .242.014.475-.216.171-.197.143-.32.152-.431V9.703h4.045l3.68 4.99c.096.159.432.334.674.334h.882c.064 0 .694-.165.694-.578.02-.195-.128-.453-.185-.516h.001Zm-17.809-.109c-.013-.118.063-.227-.14-.543-.229-.191-.377-.191-.493-.191-.014 0-.052.016-.087 0h-7.647V8.628h7.502c.456 0 .636-.628.636-.797v-.414c0-.105-.202-.733-.636-.733h-7.481V2.46h7.567a.64.64 0 0 0 .555-.244c.138-.236.127-.358.133-.492v-.507c-.037-.118.024-.258-.137-.513-.223-.18-.405-.18-.511-.18h-9.23c-.058-.01-.165-.01-.347.111-.237.224-.16.407-.17.44v13.218c.01.129-.057.251.098.46.16.237.399.273.523.273h9.232c.087 0 .225.005.456-.175.234-.26.17-.402.177-.524v-.503Zm-21.173-7.221 4.689-5.105c.076-.095.155-.207.155-.35-.033-.39-.328-.625-.684-.625h-.866c-.292-.03-.591.176-.674.234l-7.052 7.783V1.2c0-.1.016-.241-.14-.471-.176-.2-.42-.206-.526-.206h-.808c-.1 0-.291 0-.502.17-.172.186-.167.375-.167.481-.005.185-.005 13.07 0 13.217 0 .104 0 .302.175.448.17.159.376.187.521.187h.723c.127-.012.285.005.534-.153.206-.196.19-.404.19-.482v-2.968l2.926-3.206 4.99 6.396c.19.15.252.322.787.414h.949c.22 0 .665-.216.665-.572a.608.608 0 0 0-.148-.406l-5.737-7.447ZM143.011 7.81h-3.752V2.457h3.847c1.801.048 3.137 1.087 3.152 2.787-.02 1.497-.992 2.524-3.247 2.567Zm2.542 1.448c1.637-.704 2.791-2.116 2.785-4.053 0-2.492-2.031-4.683-5.183-4.683h-5.414l-.02-.01c-.2 0-.588.38-.588.661V14.38c.004.102-.027.212.122.413a.592.592 0 0 0 .486.234h.895c.038 0 .257.014.48-.216.18-.197.144-.32.144-.431V9.703h4.067l3.7 4.99c.073.159.408.334.661.334h.847c.09 0 .721-.165.721-.578.009-.195-.135-.453-.192-.516-1.127-1.494-2.762-3.706-3.511-4.674Zm-23.456.608a256.062 256.062 0 0 0 3.036-6.095c.011-.007.016-.01.016-.017.02.01.026.016.042.034.974 1.978 2.374 4.814 2.993 6.078h-6.087Zm3.666-9.295c0-.012-.212-.413-.614-.397-.38-.016-.576.397-.576.397-1.344 2.523-6.117 12-6.874 13.517-.064.07-.115.165-.115.394.051.544.613.544.721.544h.712c.344.057.762-.317.776-.466l1.421-2.805h7.893l1.434 2.862c.014.129.38.413.613.413.01 0 .027 0 .04-.004h.887c.158 0 .672-.175.672-.551-.012-.175-.075-.259-.096-.364-.849-1.705-5.604-10.958-6.895-13.54h.001Zm-15.339 7.271c-1.175-.012-3-.012-3.889-.012V2.46h3.849c1.747.045 3.103.995 3.103 2.688-.01 1.795-1.348 2.677-3.062 2.695h-.001Zm.025-7.32h-5.437a.541.541 0 0 0-.436.176.654.654 0 0 0-.181.476V14.38c.031.102-.034.212.162.447.185.2.37.2.45.2h.942c.068 0 .326 0 .486-.264.138-.218.086-.307.1-.383V9.768h3.51c3.232-.007 5.576-1.767 5.588-4.62-.012-2.867-2.467-4.625-5.183-4.625h-.001Zm-22.383 0h-.849c-.28-.013-.586.26-.665.44a668.28 668.28 0 0 0-4.223 6.466A607.472 607.472 0 0 0 78.107.907c0-.129-.491-.457-.704-.384h-.752c-.146 0-.661 0-.765.552.01.185.079.278.104.338 1.058 1.634 4.705 7.3 5.275 8.143v4.793c.012.132-.03.264.16.476.137.172.346.2.452.2h.828c.126 0 .306 0 .535-.2.185-.251.143-.386.143-.526V9.555c.566-.826 4.086-6.26 5.232-8.074.043-.129.101-.17.117-.407-.037-.523-.592-.552-.665-.552l-.001.001ZM67.177 13.107h-4.722V8.66h4.684c2.047.031 3.091.942 3.109 2.258-.06 1.497-.827 2.102-3.07 2.187Zm-4.721-10.65h4.098c1.953.053 2.884.888 2.909 2.142-.111 1.606-.57 2.085-2.564 2.168h-4.443v-4.31Zm7.845 5.057c.82-.608 1.338-1.631 1.308-2.998 0-2.578-2.387-3.992-5.191-3.992h-5.433c-.097 0-.298 0-.498.159-.197.154-.197.386-.197.518v13.18c0 .212.345.647.647.647h6.394c3.1 0 5.06-1.377 5.07-4.107 0-1.518-.82-2.777-2.1-3.406v-.001Zm-21.714.297h-3.784V2.46h3.878c1.77.045 3.1 1.085 3.134 2.783-.064 1.498-1.017 2.54-3.228 2.567v.001Zm2.524 1.454c1.634-.709 2.798-2.12 2.798-4.058C53.877 2.71 51.86.523 48.734.523h-5.445a.523.523 0 0 0-.433.176c-.153.16-.17.326-.17.476V14.38c0 .102-.037.212.106.407.185.24.428.24.525.24h.888c.08 0 .26 0 .464-.2.18-.235.122-.345.143-.447V9.725h4.07l3.696 4.968c.113.147.38.334.62.334h.895c.094 0 .708-.138.708-.578.01-.2-.147-.46-.197-.516-1.11-1.482-2.755-3.706-3.496-4.67l.003.002Zm-23.584.604c.625-1.264 2.064-4.096 3.043-6.096 0-.006.005-.01.005-.026.004.02.017.026.026.044.996 1.977 2.371 4.813 3.016 6.077h-6.09ZM31.17.572c0-.012-.175-.413-.589-.397-.38-.016-.607.397-.607.397-1.306 2.523-6.091 12-6.851 13.517-.06.07-.133.165-.133.394.073.544.646.544.746.544h.714c.34.057.737-.317.784-.466l1.364-2.805h7.916l1.418 2.862c.014.129.4.413.62.413.014 0 .04 0 .052-.004h.904c.152 0 .654-.175.654-.551 0-.175-.047-.259-.103-.364-.82-1.705-5.567-10.959-6.889-13.54ZM20.253.523h-.716c-.177-.056-.733.198-.733.436l-3.782 9.934L11.344.884c-.067-.317-.573-.424-.611-.397h-.058c-.189-.063-.59.26-.59.406L6.523 10.902c-.89-2.25-2.792-7.087-3.877-9.855-.045-.22-.36-.554-.695-.524h-.922C.969.523.882.513.682.6.497.706.427.96.439 1.06c0 .164.053.238.076.353L5.88 14.945c.203.324.504.387.6.387h.043s.483.03.628-.427c1.022-2.81 2.742-7.444 3.567-9.645.808 2.227 2.528 6.945 3.543 9.65.066.323.593.435.65.422.042.013.569-.1.617-.407 1.799-4.506 3.952-9.936 5.343-13.513.036-.115.054-.158.068-.337 0-.476-.629-.552-.686-.552Z">
          </path>
        </g>
        <defs>
          <clipPath id="astroicon:companies/WarbyParker_graya">
            <path fill="#fff" d="M0 0h200v16H0z" transform="translate(.438)"></path>
          </clipPath>
        </defs>
      </svg>