<svg fill="none" viewBox="0 0 24 24" class="h-[24px] w-[24px]" astro-icon="top_menu/laptop"><path fill="#a3e7cb" fill-rule="evenodd" d="M3 17H2v.1A2.9 2.9 0 0 0 4.9 20h14.2a2.9 2.9 0 0 0 2.9-2.9V17H3z"></path><path stroke="#007780" stroke-linecap="round" stroke-linejoin="round" stroke-width="2" d="M21 17H3m18 0h1v.1m-1-.1V6M3 17H2v.1m1-.1V6m2-2h14M5 4a2 2 0 0 0-2 2m2-2h0a2 2 0 0 0-2 2h0m16-2a2 2 0 0 1 2 2m-2-2h0a2 2 0 0 1 2 2h0m1 11.1a2.9 2.9 0 0 1-2.9 2.9m2.9-2.9h0a2.9 2.9 0 0 1-2.9 2.9h0m0 0H4.9m0 0A2.9 2.9 0 0 1 2 17.1M4.9 20h0A2.9 2.9 0 0 1 2 17.1h0"></path><circle cx="12" cy="7" r="1" fill="#007780"></circle></svg>