<svg width="16" height="16" viewBox="0 0 16 16" fill="none" class="icon-dark-teal-500 icon-container__svg-part mx-[12px] flex-shrink-0 sm:hidden"><path d="M2 3a1 1 0 0 1 1-1h10a1 1 0 0 1 1 1v2H2V3Z" fill="#D0D2E0" class="icon-container__svg-part"></path><path fill-rule="evenodd" clip-rule="evenodd" d="M3 0a3 3 0 0 0-3 3v10a3 3 0 0 0 3 3h10a3 3 0 0 0 3-3V3a3 3 0 0 0-3-3H3ZM2 3a1 1 0 0 1 1-1h10a1 1 0 0 1 1 1v2H2V3Zm12 3H2v7a1 1 0 0 0 1 1h10a1 1 0 0 0 1-1V6ZM3.5 4a.5.5 0 1 0 0-1 .5.5 0 0 0 0 1Zm2 0a.5.5 0 1 0 0-1 .5.5 0 0 0 0 1ZM8 3.5a.5.5 0 1 1-1 0 .5.5 0 0 1 1 0Z" fill="currentColor" class="icon-dark"></path></svg>