<svg width="16" height="16" viewBox="0 0 16 16" fill="none" class="text-teal-500 transition transition-all sm:hidden group-hover:text-teal-700"><path fill-rule="evenodd" clip-rule="evenodd" d="M14 4a2 2 0 0 0-2-2H4a2 2 0 0 0-2 2v2h12V4Z" fill="#D0D2E0" class="icon-container__svg-part"></path><path d="M14 6V4a2 2 0 0 0-2-2H4a2 2 0 0 0-2 2v2m12 0v6a2 2 0 0 1-2 2H4a2 2 0 0 1-2-2V6m12 0H2m3-5v2m6-2v2M5 9v1h1V9H5Z" stroke="currentColor" class="icon-dark" stroke-width="2" stroke-linecap="round" stroke-linejoin="round"></path></svg>