<svg width="16" height="16" viewBox="0 0 16 16" fill="none" class="text-teal-500 transition transition-all sm:hidden group-hover:text-teal-700"><path d="M8 1a7 7 0 0 0-4.9 12 5.009 5.009 0 0 1 3.043-3.644 3 3 0 1 1 3.714 0A5.009 5.009 0 0 1 12.9 13 7 7 0 0 0 8 1Z" fill="#D0D2E0" class="icon-container__svg-part"></path><path d="M6.143 9.356C6.653 9.76 7.299 10 8 10c.701 0 1.346-.24 1.857-.644m-3.714 0a3 3 0 1 1 3.714 0m-3.714 0A5.009 5.009 0 0 0 3.1 13m6.757-3.643A5.009 5.009 0 0 1 12.9 13m0 0a7 7 0 1 0-9.8 0m9.8 0A6.977 6.977 0 0 1 8 15a6.977 6.977 0 0 1-4.9-2" stroke="currentColor" class="icon-dark" stroke-width="2"></path></svg>