<svg width="16" height="16" viewBox="0 0 16 16" fill="none" class="icon-light-jade-200 text-teal-500 transition transition-all sm:hidden group-hover:text-teal-700"><path d="m8 3 7 3-2 .857V8.97a3 3 0 0 1-1.886 2.785l-2.371.949a2 2 0 0 1-1.486 0l-2.371-.949A3 3 0 0 1 3 8.97V6.857L1 6l7-3Z" fill="#D0D2E0" class="icon-light"></path><path d="M13 6.857 15 6 8 3 1 6l2 .857m10 0V8.97a3 3 0 0 1-1.886 2.785l-2.371.949a2 2 0 0 1-1.486 0l-2.371-.949A3 3 0 0 1 3 8.97V6.857m10 0L8 9 3 6.857" stroke="currentColor" class="icon-dark" stroke-width="2" stroke-linecap="round" stroke-linejoin="round"></path><path d="M15.5 6v3" stroke="currentColor" class="icon-dark" stroke-linecap="round" stroke-linejoin="round"></path></svg>