<svg width="16" height="16" viewBox="0 0 16 16" fill="none" class="icon-light-jade-200 text-teal-500 transition transition-all sm:hidden group-hover:text-teal-700"><path d="M12.95 12.95a7 7 0 1 1-9.9-9.9 7 7 0 0 1 9.9 9.9Z" fill="#E1E3ED" stroke="currentColor" class="icon-dark-stroke icon-light-fill" stroke-width="2"></path><path fill-rule="evenodd" clip-rule="evenodd" d="m6.845 5.535-.001.001A1 1 0 0 1 5.146 4.48L6 5c-.854-.52-.854-.52-.853-.521v-.001l.001-.002.003-.004.005-.009.015-.023.042-.061a3.315 3.315 0 0 1 .657-.672A3.452 3.452 0 0 1 8 3c1.099 0 1.911.432 2.414 1.113.465.63.586 1.365.586 1.887 0 .63-.173 1.147-.463 1.574-.272.402-.62.68-.871.873-.608.465-.655.516-.673.67a1 1 0 1 1-1.986-.234c.125-1.061.915-1.638 1.327-1.938l.117-.087c.229-.175.352-.29.43-.405C8.944 6.363 9 6.237 9 6c0-.259-.067-.525-.195-.7C8.714 5.179 8.526 5 8 5c-.437 0-.729.152-.913.294a1.316 1.316 0 0 0-.242.241ZM8 13a1 1 0 1 0 0-2 1 1 0 0 0 0 2Z" fill="currentColor" class="icon-dark"></path></svg>