<svg fill="none" viewBox="0 0 86 30" class="swiper-slide max-h-[32px]" astro-icon="companies/Bark_gray"><path fill="#AFB3C7" d="M.57 29.358C.679 19.501.57 8.465.25.43A46.649 46.649 0 0 1 5.8 0h.206c3.308.107 5.87.964 7.364 2.572 1.173 1.285 1.814 3 1.707 5.035-.214 5.68-7.256 6.857-7.256 6.857h.213s7.683.75 8.11 6.86c.213 2.999-1.067 4.82-2.981 6.106-1.815 1.178-4.383 1.714-7.89 1.714H.571v.214Zm76.723-8.251c.185-.874.435-1.733.747-2.57l7.15 1.5a20.416 20.416 0 0 1-.747 2.571c-.107.428-.214.75-.32 1.071l-6.83-2.572Zm-1.707-4.284c-.428-.537-1.175-1.929-1.494-2.68v-.106h.115a62.21 62.21 0 0 0 5.657-3.537c1.28-.857 2.56-1.713 3.84-2.463h.108v.107c.319.535.745 1.715 1.173 2.679.214.428.32.857.428 1.071v.107h-.107a276.08 276.08 0 0 1-5.656 2.893 43.92 43.92 0 0 0-4.064 1.929Z"></path><path fill="#AFB3C7" d="M55.523 29.358h6.938a40.341 40.341 0 0 1-.64-5.142V24l12.273 5.358 2.88-3.643c-4.909-3.107-12.377-7.821-12.798-8.142l-.107-.107.107-.109s7.89-5.892 13.34-10.07l-2.561-4.394-13.34 4.287V.107h-6.092c0-.107.533 16.716 0 29.251ZM29.805 0c1.282 9.536 3.201 22.394 5.23 29.904l-5.977.107c-1.066-4.073-2.348-10.18-2.348-10.287v-.107l-2.98.535-1.822 9.1H16.04C17.753 21 20.094 9.214 21.268 0h8.537Zm20.276 29.904c-3.201-3.216-7.15-10.287-7.89-11.68h-.427c0 1.286 0 1.928.107 3.322.107 2.25.107 4.714.107 7.714h-5.435c0-9.108-.214-18.428-.526-29.036A75.763 75.763 0 0 1 41.452.01c4.588 0 10.563 1.5 10.563 8.678 0 3.002-1.494 5.465-3.627 7.073l-.321.32h-.105v.108c.959 2.035 3.627 7.286 6.721 10.93l-4.602 2.786Z"></path></svg>