<svg fill="none" viewBox="0 0 157 28" class="swiper-slide max-h-[32px]" astro-icon="companies/Classpass_gray">
        <path fill="#AFB3C7"
          d="M24.327 0h-4.166c-.725 0-1.45.543-1.527 1.268l-.62 2.976c-.079.543-.544.906-1.088.906H12.32C6.083 5.227.312 9.937.312 16.614.313 22.566 5.282 28 12.424 28h4.71c.725 0 1.45-.543 1.527-1.268l.621-2.976c.078-.543.544-.906 1.087-.906h4.063c6.961 0 12.11-5.33 12.11-11.386C36.439 4.787 30.746 0 24.328 0Zm-.103 18.425h-4.891c-.725 0-1.346.544-1.527 1.268l-.621 2.898c-.078.544-.543.906-1.087.906h-3.623c-3.7 0-7.686-2.613-7.686-6.961 0-3.985 3.52-6.961 7.686-6.961h5.59c.724 0 1.345-.544 1.527-1.268l.62-2.899c.078-.543.544-.905 1.088-.905h2.898c3.882 0 7.686 2.717 7.686 6.961-.052 3.882-3.39 6.961-7.66 6.961Zm26.603-3.364c-2.251 0-3.571-1.76-3.571-3.752 0-2.303 1.5-3.83 3.57-3.83 1.088 0 1.812.44 2.485.854l1.087-1.941c-.776-.492-2.07-1.087-3.442-1.087-3.57 0-6.133 2.536-6.133 6.004 0 3.442 2.614 6.003 6.133 6.003 1.501 0 2.588-.62 3.442-1.138l-1.087-1.941c-.673.466-1.682.828-2.484.828ZM58.46 0h2.303v17.002H58.46V0Zm15.58 5.667-.26.984c-.62-.673-1.94-1.346-3.338-1.346-2.846 0-5.46 2.251-5.46 5.926 0 3.804 2.614 6.107 5.46 6.107 1.398 0 2.666-.673 3.339-1.345l.258 1.035h1.941V5.745h-1.94v-.078Zm-.208 5.72c0 2.587-1.578 3.752-3.079 3.752-1.527 0-3.287-1.035-3.287-3.882 0-1.812.958-3.752 3.106-3.752 1.63 0 3.26 1.32 3.26 3.752v.13Zm10.378.905c1.578.414 2.25.725 2.25 1.527 0 .62-.542 1.268-1.81 1.268-1.165 0-2.123-.414-3.028-.906l-1.035 1.941c.802.492 2.587 1.165 4.063 1.165 2.535 0 4.01-1.708 4.01-3.442 0-2.976-2.924-3.442-3.7-3.7-1.63-.44-2.044-.777-2.044-1.45 0-.725.62-1.216 1.811-1.216 1.035 0 1.812.31 2.536.673L88.35 6.21c-1.035-.44-2.251-.906-3.623-.906-2.484 0-3.985 1.76-3.985 3.39 0 2.614 2.2 3.287 3.468 3.597Zm12.343 0c1.579.414 2.252.725 2.252 1.527 0 .62-.544 1.268-1.812 1.268-1.164 0-2.122-.414-3.027-.906l-1.036 1.941c.803.492 2.588 1.165 4.063 1.165 2.536 0 4.011-1.708 4.011-3.442 0-2.976-2.924-3.442-3.7-3.7-1.63-.44-2.044-.777-2.044-1.45 0-.725.62-1.216 1.81-1.216 1.036 0 1.812.31 2.537.673l1.087-1.941c-1.035-.44-2.252-.906-3.623-.906-2.484 0-3.985 1.76-3.985 3.39-.026 2.614 2.2 3.287 3.467 3.597Zm14.44-6.987c-1.397 0-2.665.673-3.338 1.346l-.259-1.035h-1.941v16.07h2.174v-5.59l.078-.052c.621.673 1.889 1.217 3.105 1.217 2.924 0 5.642-1.89 5.642-6.108.051-3.778-2.562-5.848-5.461-5.848Zm-.258 9.834c-1.501 0-3.08-1.165-3.08-3.753v-.13c0-2.483 1.63-3.751 3.261-3.751 2.173 0 3.105 1.94 3.105 3.752 0 2.847-1.76 3.882-3.286 3.882Zm18.606-9.472-.259 1.035c-.621-.672-1.941-1.345-3.338-1.345-2.847 0-5.461 2.251-5.461 5.926 0 3.804 2.614 6.107 5.461 6.107 1.397 0 2.665-.673 3.338-1.346l.259 1.035h1.941V5.797h-1.941v-.13Zm-.233 5.72c0 2.587-1.579 3.752-3.08 3.752-1.526 0-3.286-1.035-3.286-3.882 0-1.812.957-3.752 3.105-3.752 1.631 0 3.261 1.32 3.261 3.752v.13Zm10.403.905c1.578.414 2.251.725 2.251 1.527 0 .62-.543 1.268-1.811 1.268-1.165 0-2.122-.414-3.028-.906l-1.035 1.941c.802.492 2.588 1.165 4.063 1.165 2.536 0 4.011-1.708 4.011-3.442 0-2.976-2.924-3.442-3.701-3.7-1.63-.44-2.044-.777-2.044-1.45 0-.725.621-1.216 1.811-1.216 1.036 0 1.812.31 2.536.673l1.087-1.941c-1.035-.44-2.251-.906-3.623-.906-2.484 0-3.985 1.76-3.985 3.39-.026 2.614 2.2 3.287 3.468 3.597Zm12.318 0c1.578.414 2.251.725 2.251 1.527 0 .62-.543 1.268-1.811 1.268-1.165 0-2.122-.414-3.028-.906l-1.035 1.941c.802.492 2.588 1.165 4.063 1.165 2.536 0 4.011-1.708 4.011-3.442 0-2.976-2.924-3.442-3.701-3.7-1.63-.44-2.044-.777-2.044-1.45 0-.725.621-1.216 1.811-1.216 1.035 0 1.812.31 2.536.673l1.087-1.941c-1.035-.44-2.251-.906-3.623-.906-2.484 0-3.985 1.76-3.985 3.39 0 2.614 2.226 3.287 3.468 3.597Z">
        </path>
      </svg>