<svg width="16" height="16" viewBox="0 0 16 16" fill="none" class="icon-container__svg-part text-teal-500 transition transition-all sm:hidden group-hover:text-[#000000]"><path fill-rule="evenodd" clip-rule="evenodd" d="M8 1.002a7 7 0 0 0-2.213 13.642c.35.065.479-.152.479-.337 0-.167-.007-.719-.01-1.303-1.948.424-2.358-.826-2.358-.826-.319-.81-.778-1.025-.778-1.025-.635-.434.049-.425.049-.425.703.05 1.073.721 1.073.721.624 1.07 1.638.76 2.037.582.063-.453.244-.762.444-.937-1.555-.176-3.19-.776-3.19-3.459 0-.764.275-1.389.722-1.878-.073-.177-.313-.889.067-1.853 0 0 .588-.188 1.926.718a6.714 6.714 0 0 1 1.751-.236c.595.003 1.195.08 1.754.236 1.336-.905 1.923-.718 1.923-.718.38.965.142 1.677.07 1.853.448.49.72 1.114.72 1.878 0 2.689-1.639 3.28-3.197 3.453.251.217.476.643.476 1.296 0 .936-.008 1.69-.008 1.92 0 .187.126.405.48.337A7 7 0 0 0 8 1v.002Z" fill="currentColor" class="icon-dark"></path></svg>