<svg width="16" height="16" viewBox="0 0 16 16" fill="none" class="icon-dark-teal-500 icon-container__svg-part mx-[12px] flex-shrink-0 sm:hidden"><path d="M4.448 2a3.427 3.427 0 0 0-2.432 1.02l-.007-.004A3.503 3.503 0 0 0 1 5.479c0 .924.363 1.81 1.01 2.463l5.984 6.05.002-.002.01.01 5.985-6.05A3.502 3.502 0 0 0 15 5.485c0-.923-.363-1.81-1.01-2.463a3.413 3.413 0 0 0-4.875-.003L8.002 4.147 6.883 3.015A3.427 3.427 0 0 0 4.448 2Z" fill="#D0D2E0" stroke="currentColor" class="icon-dark-stroke icon-container__svg-part" stroke-width="2" stroke-linejoin="round"></path></svg>