<svg fill="none" viewBox="0 0 133 32" class="swiper-slide max-h-[32px]" astro-icon="companies/PayPal_gray">
        <g fill="#AFB3C7" fill-rule="evenodd" clip-path="url(#astroicon:companies/PayPal_graya)" clip-rule="evenodd">
          <g opacity=".68">
            <path
              d="m13.656 30.693.967-6.13.062-.34a1.258 1.258 0 0 1 1.244-1.063h.768c1.28 0 2.455-.136 3.494-.406 1.109-.287 2.095-.735 2.93-1.33a7.917 7.917 0 0 0 2.214-2.42c.614-1.03 1.065-2.27 1.34-3.686.244-1.25.29-2.368.136-3.325-.162-1.01-.551-1.874-1.157-2.565a4.89 4.89 0 0 0-1.398-1.078l-.013-.007v-.016c.195-1.247.188-2.288-.023-3.183-.211-.898-.64-1.706-1.31-2.47-1.386-1.58-3.912-2.382-7.503-2.382H5.543a1.388 1.388 0 0 0-1.37 1.17L.066 27.504a.82.82 0 0 0 .812.95h6.12l-.006.03-.42 2.664a.716.716 0 0 0 .706.827h5.133a1.21 1.21 0 0 0 1.195-1.02l.05-.262Z">
            </path>
            <path
              d="M10.14 8.361a1.234 1.234 0 0 1 1.22-1.042h7.73c.917 0 1.77.06 2.552.185.223.036.44.078.65.125a9.464 9.464 0 0 1 .907.248c.383.127.74.277 1.068.451.388-2.469-.002-4.148-1.337-5.67C21.46.983 18.804.266 15.406.266H5.543a1.41 1.41 0 0 0-1.394 1.19L.042 27.5a.846.846 0 0 0 .836.979h6.09L10.14 8.361Z">
            </path>
            <path
              d="M24.267 8.328c-.029.188-.062.38-.1.578-1.3 6.678-5.751 8.987-11.435 8.987H9.838c-.694 0-1.28.505-1.389 1.191l-1.902 12.06a.74.74 0 0 0 .731.856h5.133c.607 0 1.124-.442 1.22-1.042l.05-.26.966-6.132.063-.338c.095-.6.612-1.043 1.219-1.043h.768c4.972 0 8.865-2.02 10.003-7.862.475-2.441.23-4.479-1.027-5.911a4.888 4.888 0 0 0-1.406-1.084Z">
            </path>
            <path
              d="M22.906 7.786a9.464 9.464 0 0 0-.613-.157 11.25 11.25 0 0 0-.651-.125 16.131 16.131 0 0 0-2.552-.185h-7.73a1.234 1.234 0 0 0-1.22 1.042L8.497 18.78l-.048.304a1.406 1.406 0 0 1 1.389-1.191h2.894c5.684 0 10.134-2.31 11.435-8.987.038-.198.071-.39.1-.578a6.986 6.986 0 0 0-1.36-.542Z">
            </path>
          </g>
          <g opacity=".7">
            <path
              d="M10.14 8.361a1.234 1.234 0 0 1 1.22-1.042h7.73c.917 0 1.77.06 2.552.185.223.036.44.078.65.125a9.464 9.464 0 0 1 .907.248c.383.127.74.277 1.068.451.388-2.469-.002-4.148-1.337-5.67C21.46.983 18.804.266 15.406.266H5.543a1.41 1.41 0 0 0-1.394 1.19L.042 27.5a.846.846 0 0 0 .836.979h6.09L10.14 8.361Z">
            </path>
            <path
              d="M22.906 7.786a9.464 9.464 0 0 0-.613-.157 11.25 11.25 0 0 0-.651-.125 16.131 16.131 0 0 0-2.552-.185h-7.73a1.234 1.234 0 0 0-1.22 1.042L8.497 18.78l-.048.304a1.406 1.406 0 0 1 1.389-1.191h2.894c5.684 0 10.134-2.31 11.435-8.987.038-.198.071-.39.1-.578a6.986 6.986 0 0 0-1.36-.542Z">
            </path>
          </g>
          <path
            d="M10.14 8.361a1.234 1.234 0 0 1 1.22-1.042h7.73c.917 0 1.77.06 2.552.185.223.036.44.078.65.125a9.464 9.464 0 0 1 .907.248c.383.127.74.277 1.068.451.388-2.469-.002-4.148-1.337-5.67C21.46.983 18.804.266 15.406.266H5.543a1.41 1.41 0 0 0-1.394 1.19L.042 27.5a.846.846 0 0 0 .836.979h6.09L10.14 8.361Zm40.153 5.736c-.393 2.582-2.364 2.582-4.271 2.582h-1.085l.76-4.82a.6.6 0 0 1 .593-.506h.497c1.298 0 2.525 0 3.157.74.378.442.493 1.098.35 2.004Zm-.83-6.735h-7.191a1 1 0 0 0-.987.844l-2.909 18.441a.6.6 0 0 0 .592.693h3.434a1 1 0 0 0 .987-.843l.785-4.976a.999.999 0 0 1 .987-.843h2.276c4.737 0 7.471-2.293 8.186-6.837.322-1.987.013-3.548-.918-4.642-1.023-1.201-2.835-1.837-5.241-1.837ZM66.16 20.718c-.332 1.968-1.894 3.289-3.887 3.289-.999 0-1.798-.322-2.312-.93-.51-.603-.701-1.462-.54-2.419.31-1.95 1.897-3.314 3.86-3.314.977 0 1.771.325 2.295.939.528.618.735 1.483.584 2.435Zm4.8-6.703h-3.444a.6.6 0 0 0-.592.506l-.152.963-.24-.349c-.746-1.082-2.408-1.444-4.068-1.444-3.805 0-7.055 2.883-7.688 6.927-.329 2.017.138 3.945 1.282 5.29 1.051 1.237 2.55 1.752 4.338 1.752 3.067 0 4.767-1.97 4.767-1.97l-.153.957a.6.6 0 0 0 .592.693h3.101a1 1 0 0 0 .987-.843l1.862-11.79a.6.6 0 0 0-.592-.692Zm18.341 0H85.84a1 1 0 0 0-.827.438l-4.774 7.032-2.024-6.757a1 1 0 0 0-.957-.713h-3.403a.6.6 0 0 0-.568.793L77.1 25.996l-3.585 5.058a.6.6 0 0 0 .49.946h3.457a1 1 0 0 0 .822-.43l11.511-16.614a.6.6 0 0 0-.493-.941Zm12.288.082c-.393 2.582-2.364 2.582-4.271 2.582h-1.085l.76-4.82a.6.6 0 0 1 .593-.506h.497c1.298 0 2.524 0 3.157.74.378.442.492 1.098.349 2.004Zm-.83-6.735h-7.192a1 1 0 0 0-.987.844l-2.908 18.441a.6.6 0 0 0 .592.693h3.69c.345 0 .638-.25.691-.59l.825-5.229a1 1 0 0 1 .987-.843h2.276c4.737 0 7.471-2.293 8.186-6.837.321-1.987.012-3.548-.918-4.642-1.023-1.201-2.835-1.837-5.242-1.837Zm16.697 13.356c-.333 1.968-1.895 3.289-3.887 3.289-.999 0-1.798-.322-2.313-.93-.509-.603-.701-1.462-.539-2.419.31-1.95 1.897-3.314 3.859-3.314.978 0 1.772.325 2.296.939.528.618.735 1.483.584 2.435Zm4.799-6.703h-3.443a.6.6 0 0 0-.593.506l-.151.963-.241-.35c-.746-1.082-2.408-1.443-4.068-1.443-3.804 0-7.054 2.883-7.687 6.927-.329 2.017.138 3.945 1.282 5.29 1.051 1.237 2.551 1.752 4.337 1.752 3.067 0 4.768-1.97 4.768-1.97l-.153.956a.599.599 0 0 0 .592.694h3.101a1 1 0 0 0 .987-.843l1.861-11.79a.599.599 0 0 0-.592-.692Zm4.059-6.146-2.951 18.778a.599.599 0 0 0 .592.693h2.969a1 1 0 0 0 .987-.843l2.91-18.442a.6.6 0 0 0-.592-.693h-3.322a.6.6 0 0 0-.593.507Z">
          </path>
        </g>
        <defs>
          <clipPath id="astroicon:companies/PayPal_graya">
            <path fill="#fff" d="M0 0h132v32H0z" transform="translate(.031)"></path>
          </clipPath>
        </defs>
      </svg>