<svg width="16" height="16" viewBox="0 0 16 16" fill="none" class="icon-dark-teal-500 icon-container__svg-part mx-[12px] flex-shrink-0 sm:hidden"><path d="M1 14a1 1 0 0 0 1 1h12a1 1 0 0 0 1-1v-2l-2.5-2.5L10 12 5.5 7.5 1 12v2ZM12 5a1 1 0 1 1-2 0 1 1 0 0 1 2 0Z" fill="#D0D2E0" class="icon-container__svg-part"></path><path d="m5.5 7.5.707-.707a1 1 0 0 0-1.414 0L5.5 7.5ZM10 12l-.707.707a1 1 0 0 0 1.414 0L10 12Zm2.5-2.5.707-.707a1 1 0 0 0-1.414 0l.707.707ZM14 0H2v2h12V0ZM2 14v-2H0v2h2Zm0-2V2H0v10h2Zm-.293.707 4.5-4.5-1.414-1.414-4.5 4.5 1.414 1.414Zm3.086-4.5 4.5 4.5 1.414-1.414-4.5-4.5-1.414 1.414Zm5.914 4.5 2.5-2.5-1.414-1.414-2.5 2.5 1.414 1.414ZM16 14v-2h-2v2h2Zm0-2V2h-2v10h2Zm-4.207-1.793 2.5 2.5 1.414-1.414-2.5-2.5-1.414 1.414ZM2 16h12v-2H2v2Zm9-11v2a2 2 0 0 0 2-2h-2Zm0 0H9a2 2 0 0 0 2 2V5Zm0 0V3a2 2 0 0 0-2 2h2Zm0 0h2a2 2 0 0 0-2-2v2Zm3-3h2a2 2 0 0 0-2-2v2Zm0 12v2a2 2 0 0 0 2-2h-2ZM2 0a2 2 0 0 0-2 2h2V0ZM0 14a2 2 0 0 0 2 2v-2H0Z" fill="currentColor" class="icon-dark"></path></svg>