<svg data-v-26e6051b="" width="16" height="16" viewBox="0 0 16 16" fill="none" class="icon-dark-indigo-500 icon-light-indigo-100 ml-[4px]"><path fill="#D0D2E0" d="M13.657 13.657A8 8 0 1 1 2.343 2.343a8 8 0 0 1 11.314 11.314Z" class="icon-light"></path><path fill="currentColor" fill-rule="evenodd" d="m1.845 2.535-.001.001A1 1 0 0 1 .146 1.48L1 2c-.854-.52-.854-.52-.853-.521v-.001l.001-.002.003-.004.005-.009.015-.023.042-.061A3.315 3.315 0 0 1 .87.707 3.452 3.452 0 0 1 3 0c1.099 0 1.911.432 2.414 1.113C5.879 1.743 6 2.478 6 3c0 .63-.173 1.147-.463 1.574-.272.402-.62.68-.871.873-.608.465-.655.516-.673.67a1 1 0 0 1-1.986-.234c.125-1.061.915-1.638 1.327-1.938l.117-.087c.229-.175.352-.29.43-.405C3.944 3.363 4 3.237 4 3c0-.259-.067-.525-.195-.7C3.714 2.179 3.526 2 3 2c-.437 0-.729.152-.913.294a1.316 1.316 0 0 0-.242.241ZM3 10a1 1 0 1 0 0-2 1 1 0 0 0 0 2Z" class="icon-dark" clip-rule="evenodd" style="transform:translate(5px,2.8px)"></path></svg>