<svg width="48" height="48" viewBox="0 0 48 48" fill="none" xmlns="http://www.w3.org/2000/svg" class="h-[48px] w-[48px]"><path d="M44 16H18V38H42.5C43.3284 38 44 37.3284 44 36.5V16Z" fill="#69D3A7"></path><path d="M18 16H4V36.5C4 37.3284 4.67157 38 5.5 38H18V16Z" fill="#69D3A7"></path><path d="M44 11.5C44 10.6716 43.3284 10 42.5 10H5.5C4.67157 10 4 10.6716 4 11.5V16H44V11.5Z" fill="#00595D"></path><circle cx="7" cy="13" r="1" fill="#E4FBF2"></circle><circle cx="10" cy="13" r="1" fill="#E4FBF2"></circle><circle cx="13" cy="13" r="1" fill="#E4FBF2"></circle><path d="M10 23L14 27L10 31" stroke="#00291B" stroke-width="2" stroke-linecap="round" stroke-linejoin="round"></path><line x1="17" y1="31" x2="23" y2="31" stroke="#00595D" stroke-width="2" stroke-linecap="round" stroke-linejoin="round"></line></svg>